<?xml version="1.0" standalone="no"?><!-- Generator: Gravit.io --><svg xmlns="http://www.w3.org/2000/svg" xmlns:xlink="http://www.w3.org/1999/xlink" style="isolation:isolate" viewBox="293.322 153.33 90.23 90.23" width="90.23px" height="90.23px"><defs><clipPath id="_clipPath_QVY5A3giD8wJr5vL9hhJKn5Rk6gBiJ9I"><rect x="293.322" y="153.33" width="90.23" height="90.23"/></clipPath></defs><g clip-path="url(#_clipPath_QVY5A3giD8wJr5vL9hhJKn5Rk6gBiJ9I)"><defs><filter id="O8hkthR2UeMRleW4NAU3lOwONt6TR3dC" x="-200%" y="-200%" width="400%" height="400%" filterUnits="objectBoundingBox" color-interpolation-filters="sRGB"><feGaussianBlur xmlns="http://www.w3.org/2000/svg" in="SourceGraphic" stdDeviation="2.146804531419514"/><feOffset xmlns="http://www.w3.org/2000/svg" dx="0" dy="0" result="pf_100_offsetBlur"/><feFlood xmlns="http://www.w3.org/2000/svg" flood-color="#000000" flood-opacity="0.65"/><feComposite xmlns="http://www.w3.org/2000/svg" in2="pf_100_offsetBlur" operator="in" result="pf_100_dropShadow"/><feBlend xmlns="http://www.w3.org/2000/svg" in="SourceGraphic" in2="pf_100_dropShadow" mode="normal"/></filter></defs><g filter="url(#O8hkthR2UeMRleW4NAU3lOwONt6TR3dC)"><circle vector-effect="non-scaling-stroke" cx="338.43659209075685" cy="198.44549359311307" r="37.620000000000005" fill="rgb(255,255,255)" stroke-width="0.99" stroke="rgb(226,228,231)" stroke-linejoin="miter" stroke-linecap="square" stroke-miterlimit="3"/></g><circle vector-effect="non-scaling-stroke" cx="338.49999999999994" cy="198.5" r="38.49999999999994" fill="none" stroke-width="1" stroke="rgb(231,231,231)" stroke-linejoin="miter" stroke-linecap="square" stroke-miterlimit="3"/><g><g><path d=" M 347.411 200.18 L 332.823 214.767 C 331.895 215.696 330.39 215.696 329.463 214.767 C 328.535 213.839 328.535 212.335 329.463 211.407 L 342.371 198.5 L 329.463 185.592 C 328.535 184.665 328.535 183.16 329.463 182.233 C 330.39 181.305 331.895 181.305 332.823 182.233 L 347.411 196.82 C 347.875 197.284 348.106 197.892 348.106 198.5 C 348.106 199.108 347.874 199.716 347.411 200.18 Z " fill="rgb(131,131,131)"/></g></g></g></svg>