<?xml version="1.0" standalone="no"?><!-- Generator: Gravit.io --><svg xmlns="http://www.w3.org/2000/svg" xmlns:xlink="http://www.w3.org/1999/xlink" style="isolation:isolate" viewBox="468.4 18.403 92.964 92.964" width="92.964px" height="92.964px"><defs><clipPath id="_clipPath_pFeiIxNEXLcXKOa4ZbPSFJY62tmXJw56"><rect x="468.4" y="18.403" width="92.964" height="92.964"/></clipPath></defs><g clip-path="url(#_clipPath_pFeiIxNEXLcXKOa4ZbPSFJY62tmXJw56)"><clipPath id="_clipPath_uHpNmGc8InzYFZJljOEdcu7CtRVNwBQx"><rect x="469.77" y="19.77" width="90.23" height="90.23" transform="matrix(1,0,0,1,0,0)" fill="rgb(255,255,255)"/></clipPath><g clip-path="url(#_clipPath_uHpNmGc8InzYFZJljOEdcu7CtRVNwBQx)"><g><g filter="url(#o34TvbDHtRsRibG7zpJJWUnZSkl530Bk)"><circle vector-effect="non-scaling-stroke" cx="514.8845920907568" cy="64.88549359311301" r="37.620000000000005" fill="rgb(255,255,255)" stroke-width="0.99" stroke="rgb(226,228,231)" stroke-opacity="100" stroke-linejoin="miter" stroke-linecap="square" stroke-miterlimit="3"/></g><defs><filter id="o34TvbDHtRsRibG7zpJJWUnZSkl530Bk" x="-200%" y="-200%" width="400%" height="400%" filterUnits="objectBoundingBox" color-interpolation-filters="sRGB"><feGaussianBlur xmlns="http://www.w3.org/2000/svg" in="SourceGraphic" stdDeviation="2.146804531419514"/><feOffset xmlns="http://www.w3.org/2000/svg" dx="0" dy="0" result="pf_100_offsetBlur"/><feFlood xmlns="http://www.w3.org/2000/svg" flood-color="#000000" flood-opacity="0.65"/><feComposite xmlns="http://www.w3.org/2000/svg" in2="pf_100_offsetBlur" operator="in" result="pf_100_dropShadow"/><feBlend xmlns="http://www.w3.org/2000/svg" in="SourceGraphic" in2="pf_100_dropShadow" mode="normal"/></filter></defs><ellipse vector-effect="non-scaling-stroke" cx="515.05" cy="65" rx="38.75" ry="39" fill="rgb(255,255,255)" stroke-width="1" stroke="rgb(226,228,232)" stroke-opacity="100" stroke-linejoin="miter" stroke-linecap="square" stroke-miterlimit="3"/></g></g><clipPath id="_clipPath_KyNVkjqAJ1hnLXZLVPgdDihV19MpcH6k"><rect x="468.4" y="18.403" width="92.964" height="92.964" transform="matrix(1,0,0,1,0,0)" fill="rgb(255,255,255)"/></clipPath><g clip-path="url(#_clipPath_KyNVkjqAJ1hnLXZLVPgdDihV19MpcH6k)"><g><g filter="url(#7jP1g9gDPZT8lWxBvgxv7PTULFVbuKXl)"><circle vector-effect="non-scaling-stroke" cx="514.8816093456987" cy="64.88550854947793" r="38.759923619999995" fill="rgb(255,255,255)" stroke-width="1.02" stroke="rgb(226,228,231)" stroke-opacity="100" stroke-linejoin="miter" stroke-linecap="square" stroke-miterlimit="3"/></g><defs><filter id="7jP1g9gDPZT8lWxBvgxv7PTULFVbuKXl" x="-200%" y="-200%" width="400%" height="400%" filterUnits="objectBoundingBox" color-interpolation-filters="sRGB"><feGaussianBlur xmlns="http://www.w3.org/2000/svg" in="SourceGraphic" stdDeviation="2.146804531419514"/><feOffset xmlns="http://www.w3.org/2000/svg" dx="0" dy="0" result="pf_100_offsetBlur"/><feFlood xmlns="http://www.w3.org/2000/svg" flood-color="#000000" flood-opacity="0.65"/><feComposite xmlns="http://www.w3.org/2000/svg" in2="pf_100_offsetBlur" operator="in" result="pf_100_dropShadow"/><feBlend xmlns="http://www.w3.org/2000/svg" in="SourceGraphic" in2="pf_100_dropShadow" mode="normal"/></filter></defs><circle vector-effect="non-scaling-stroke" cx="515.0579727567977" cy="64.94166655499995" r="39.666588499999904" fill="none" stroke-width="1.03" stroke="rgb(235,235,235)" stroke-opacity="100" stroke-linejoin="miter" stroke-linecap="square" stroke-miterlimit="3"/></g></g><g><g><path d=" M 516.792 57.66 L 516.792 53.782 C 516.792 53.107 516.203 52.489 515.275 52.188 C 514.348 51.888 513.234 51.955 512.403 52.36 L 500.222 58.328 C 499.352 58.572 498.787 58.887 498.423 59.211 L 491.401 62.651 C 490.711 62.989 490.306 63.519 490.31 64.081 C 490.313 64.643 490.724 65.17 491.417 65.505 L 512.42 75.637 C 513.25 76.038 514.359 76.1 515.284 75.797 C 516.208 75.494 516.792 74.878 516.792 74.206 L 516.792 69.599 C 516.808 69.599 516.824 69.599 516.84 69.599 C 521.774 69.599 530.564 70.508 534.005 76.602 C 534.404 77.308 535.438 77.768 536.574 77.768 C 536.676 77.768 536.776 77.765 536.877 77.757 C 538.13 77.667 539.126 77.033 539.292 76.221 C 539.359 75.892 540.843 68.136 533.563 62.668 C 529.633 59.717 524.001 58.036 516.792 57.66 Z  M 516.84 66.036 C 514.987 66.036 513.785 66.147 513.653 66.158 C 512.31 66.287 511.313 67.038 511.313 67.921 L 511.313 70.666 L 497.624 64.063 L 502.189 61.827 C 502.364 61.74 502.522 61.641 502.658 61.534 C 502.857 61.477 503.044 61.407 503.219 61.322 L 511.313 57.355 L 511.313 59.36 C 511.313 60.335 512.519 61.13 514.02 61.142 C 520.884 61.195 526.058 62.486 529.398 64.983 C 531.25 66.368 532.37 67.991 533.039 69.55 C 527.453 66.473 520.391 66.036 516.84 66.036 Z " fill="rgb(131,131,131)"/></g></g></g></svg>