<?xml version="1.0" standalone="no"?><!-- Generator: Gravit.io --><svg xmlns="http://www.w3.org/2000/svg" xmlns:xlink="http://www.w3.org/1999/xlink" style="isolation:isolate" viewBox="437.728 89.892 238.298 215" width="238.298px" height="215px"><defs><clipPath id="_clipPath_ycaBqCaqDNULknPtity52LwXmpijcORJ"><rect x="437.728" y="89.892" width="238.298" height="215"/></clipPath></defs><g clip-path="url(#_clipPath_ycaBqCaqDNULknPtity52LwXmpijcORJ)"><g style="isolation:isolate"/><g style="isolation:isolate"/><g><path d=" M 589.228 112.392 L 607.228 112.392 C 625.441 112.392 640.228 127.179 640.228 145.392 L 640.228 249.392 C 640.228 267.605 625.441 282.392 607.228 282.392 L 493.228 282.392 C 475.015 282.392 460.228 267.605 460.228 249.392 L 460.228 145.392 C 460.228 127.179 475.015 112.392 493.228 112.392 L 523.228 112.392 Q 556.228 112.392 589.228 112.392 Z " fill="rgb(90,178,205)" vector-effect="non-scaling-stroke" stroke-width="15" stroke="rgb(241,241,241)" stroke-linejoin="miter" stroke-linecap="square" stroke-miterlimit="3"/><path d=" M 560.544 170.132 L 568.897 170.132 C 577.349 170.132 584.211 176.994 584.211 185.447 L 584.211 233.709 C 584.211 242.161 577.349 249.023 568.897 249.023 L 515.994 249.023 C 507.542 249.023 500.68 242.161 500.68 233.709 L 500.68 185.447 C 500.68 176.994 507.542 170.132 515.994 170.132 L 529.916 170.132 Q 545.23 170.132 560.544 170.132 Z " fill="none" vector-effect="non-scaling-stroke" stroke-width="12" stroke="rgb(255,255,255)" stroke-linejoin="miter" stroke-linecap="square" stroke-miterlimit="3"/></g><g><g><mask id="_mask_j4d3NS32Pip3qV1P51N0c7u6B1VDFZ92" x="-200%" y="-200%" width="400%" height="400%"><rect x="-200%" y="-200%" width="400%" height="400%" style="fill:white;"/><path d=" M 609.904 141.163 L 556.409 140.758 C 553.497 140.758 551.135 143.119 551.135 146.031 C 551.135 148.944 553.496 151.305 556.409 151.305 L 597.172 151.71 L 545.619 203.366 C 543.56 205.425 543.56 208.764 545.619 210.823 C 547.678 212.882 551.018 212.883 553.077 210.823 L 604.63 159.168 L 604.555 194.173 C 604.555 197.086 606.916 199.446 609.829 199.446 C 611.284 199.446 612.604 198.856 613.558 197.902 C 614.512 196.947 615.102 195.629 615.102 194.173 L 615.177 146.437 C 615.177 143.524 612.816 141.163 609.904 141.163 Z " fill="black" stroke="none"/></mask><path d=" M 609.904 141.163 L 556.409 140.758 C 553.497 140.758 551.135 143.119 551.135 146.031 C 551.135 148.944 553.496 151.305 556.409 151.305 L 597.172 151.71 L 545.619 203.366 C 543.56 205.425 543.56 208.764 545.619 210.823 C 547.678 212.882 551.018 212.883 553.077 210.823 L 604.63 159.168 L 604.555 194.173 C 604.555 197.086 606.916 199.446 609.829 199.446 C 611.284 199.446 612.604 198.856 613.558 197.902 C 614.512 196.947 615.102 195.629 615.102 194.173 L 615.177 146.437 C 615.177 143.524 612.816 141.163 609.904 141.163 Z " fill="rgb(255,255,255)" mask="url(#_mask_j4d3NS32Pip3qV1P51N0c7u6B1VDFZ92)" vector-effect="non-scaling-stroke" stroke-width="0.844" stroke="rgb(255,255,255)" stroke-linejoin="miter" stroke-linecap="butt" stroke-miterlimit="4"/><path d=" M 609.904 141.163 L 556.409 140.758 C 553.497 140.758 551.135 143.119 551.135 146.031 C 551.135 148.944 553.496 151.305 556.409 151.305 L 597.172 151.71 L 545.619 203.366 C 543.56 205.425 543.56 208.764 545.619 210.823 C 547.678 212.882 551.018 212.883 553.077 210.823 L 604.63 159.168 L 604.555 194.173 C 604.555 197.086 606.916 199.446 609.829 199.446 C 611.284 199.446 612.604 198.856 613.558 197.902 C 614.512 196.947 615.102 195.629 615.102 194.173 L 615.177 146.437 C 615.177 143.524 612.816 141.163 609.904 141.163 Z " fill="rgb(255,255,255)"/></g></g></g></svg>