<?xml version="1.0" standalone="no"?><!-- Generator: Gravit.io --><svg xmlns="http://www.w3.org/2000/svg" xmlns:xlink="http://www.w3.org/1999/xlink" style="isolation:isolate" viewBox="509.536 89.369 120.262 80.595" width="120.262px" height="80.595px"><defs><clipPath id="_clipPath_eV8VvSrsC2kKGKcvIWUjp31TGyjMpfjp"><rect x="509.536" y="89.369" width="120.262" height="80.595"/></clipPath></defs><g clip-path="url(#_clipPath_eV8VvSrsC2kKGKcvIWUjp31TGyjMpfjp)"><ellipse vector-effect="non-scaling-stroke" cx="569.7015542354208" cy="129.5200957552063" rx="58.485054935676345" ry="38.79517381020625" fill="rgb(3,230,3)" stroke-width="1.225" stroke="rgb(226,228,232)" stroke-opacity="100" stroke-linejoin="miter" stroke-linecap="square" stroke-miterlimit="3"/><g><g><g><path d=" M 562.17 140.468 C 560.111 140.468 558.426 141.792 558.426 143.41 C 558.426 145.029 560.111 146.353 562.17 146.353 C 564.23 146.353 565.915 145.029 565.915 143.41 C 565.915 141.792 564.23 140.468 562.17 140.468 Z  M 550.938 116.929 L 550.938 119.871 L 554.682 119.871 L 561.422 131.052 L 558.801 134.583 C 558.614 135.025 558.426 135.613 558.426 136.054 C 558.426 137.673 560.111 138.997 562.17 138.997 L 584.635 138.997 L 584.635 136.054 L 562.919 136.054 C 562.732 136.054 562.545 135.907 562.545 135.76 L 562.545 135.613 L 564.23 133.112 L 578.083 133.112 C 579.58 133.112 580.704 132.524 581.265 131.641 L 588.005 122.078 C 588.379 121.784 588.379 121.637 588.379 121.343 C 588.379 120.46 587.63 119.871 586.507 119.871 L 558.801 119.871 L 557.116 116.929 L 550.938 116.929 Z  M 580.891 140.468 C 578.832 140.468 577.147 141.792 577.147 143.41 C 577.147 145.029 578.832 146.353 580.891 146.353 C 582.95 146.353 584.635 145.029 584.635 143.41 C 584.635 141.792 582.95 140.468 580.891 140.468 Z " fill="rgb(131,131,131)"/></g></g></g><ellipse vector-effect="non-scaling-stroke" cx="569.6665884999999" cy="129.66658849999993" rx="59.49988274999987" ry="39.666588499999925" fill="none" stroke-width="1.262" stroke="rgb(235,235,235)" stroke-opacity="100" stroke-linejoin="miter" stroke-linecap="square" stroke-miterlimit="3"/></g></svg>