<?xml version="1.0" encoding="UTF-8" standalone="no"?><!-- Generator: Gravit.io --><svg xmlns="http://www.w3.org/2000/svg" xmlns:xlink="http://www.w3.org/1999/xlink" style="isolation:isolate" viewBox="540.644 190.451 50.284 33.698" width="50.284pt" height="33.698pt"><defs><clipPath id="_clipPath_vVaFDC37BJgTXic8lvnKAasg4TgK3Ati"><rect x="540.644" y="190.451" width="50.284" height="33.698"/></clipPath></defs><g clip-path="url(#_clipPath_vVaFDC37BJgTXic8lvnKAasg4TgK3Ati)"><ellipse vector-effect="non-scaling-stroke" cx="565.3612471112508" cy="207.29983106542414" rx="24.453790775016955" ry="16.221051078409687" fill="rgb(152,238,146)" stroke-width="0.512" stroke="rgb(226,228,232)" stroke-opacity="100" stroke-linejoin="miter" stroke-linecap="square" stroke-miterlimit="3"/><ellipse vector-effect="non-scaling-stroke" cx="565.7855672571654" cy="207.2998310654241" rx="24.878110920931704" ry="16.585407280621126" fill="none" stroke-width="0.528" stroke="rgb(235,235,235)" stroke-opacity="100" stroke-linejoin="miter" stroke-linecap="square" stroke-miterlimit="3"/><path d=" M 576.52 202.185 C 576.52 200.205 574.65 198.563 572.367 198.563 C 570.084 198.563 568.19 200.205 568.19 202.185 C 568.19 202.838 568.395 203.464 568.735 203.991 L 559.714 203.511 L 559.349 202.456 C 559.3 202.287 559.008 201.739 557.475 201.675 C 556.875 201.643 556.845 201.897 556.845 201.897 C 556.719 202.279 557.11 202.266 557.11 202.266 C 558.181 202.266 558.57 202.498 558.619 202.583 L 561.54 211.003 L 560.274 212.733 C 560.225 212.797 559.982 213.092 560.177 213.409 C 560.323 213.641 560.615 213.704 561.028 213.704 L 571.665 213.704 C 571.835 213.704 571.957 213.873 571.957 214 C 571.957 214.168 572.127 214.337 572.322 214.337 C 572.517 214.337 572.687 214.147 572.687 213.979 C 572.687 213.493 572.225 213.071 571.665 213.071 L 560.931 213.071 L 562.172 211.362 L 572.079 210.961 C 572.59 210.961 572.979 210.623 573.077 210.138 L 574.14 205.447 C 576.595 204.389 576.52 202.185 576.52 202.185 Z  M 572.371 210.032 C 572.346 210.095 572.298 210.328 572.054 210.328 L 562.221 210.75 L 559.933 204.123 L 569.253 204.598 C 569.959 205.348 571.128 205.807 572.343 205.807 C 572.343 205.807 572.628 205.823 573.338 205.692 L 572.371 210.032 Z  M 575.063 202.459 C 575.063 202.585 574.868 202.648 574.747 202.648 L 573.096 202.648 C 572.95 202.648 572.877 202.775 572.877 202.88 L 572.877 204.396 C 572.877 204.501 572.731 204.523 572.61 204.523 L 572.1 204.523 C 571.954 204.523 571.906 204.523 571.906 204.396 L 571.906 202.88 C 571.906 202.775 571.76 202.648 571.614 202.648 L 569.963 202.648 C 569.817 202.648 569.72 202.564 569.72 202.459 L 569.72 202.059 C 569.72 201.933 569.817 201.806 569.963 201.806 L 571.614 201.806 C 571.736 201.806 571.906 201.743 571.906 201.638 L 571.906 200.122 C 571.906 200.016 571.978 199.911 572.1 199.911 L 572.61 199.911 C 572.731 199.911 572.877 200.016 572.877 200.122 L 572.877 201.638 C 572.877 201.743 572.974 201.806 573.096 201.806 L 574.747 201.806 C 574.868 201.806 575.063 201.953 575.063 202.059 C 575.063 202.059 575.063 202.459 575.063 202.459 Z " fill="rgb(131,131,131)"/><ellipse vector-effect="non-scaling-stroke" cx="570.8621143372877" cy="215.18688589832624" rx="0.9799093383824129" ry="0.8496202592014015" fill="rgb(131,131,131)"/><ellipse vector-effect="non-scaling-stroke" cx="560.5538380583082" cy="215.18688589832624" rx="0.9799093383824129" ry="0.8496202592014015" fill="rgb(131,131,131)"/></g></svg>