<?xml version="1.0" encoding="UTF-8" standalone="no"?><!-- Generator: Gravit.io --><svg xmlns="http://www.w3.org/2000/svg" xmlns:xlink="http://www.w3.org/1999/xlink" style="isolation:isolate" viewBox="527.358 220.151 50.284 33.698" width="50.284pt" height="33.698pt"><defs><clipPath id="_clipPath_flfBryQEu1chSSYCnd5AxplEdV2tZKkG"><rect x="527.358" y="220.151" width="50.284" height="33.698"/></clipPath></defs><g clip-path="url(#_clipPath_flfBryQEu1chSSYCnd5AxplEdV2tZKkG)"><ellipse vector-effect="non-scaling-stroke" cx="552.5146198850152" cy="236.93874840443976" rx="24.453790775016955" ry="16.221051078409687" fill="rgb(120,242,135)" stroke-width="0.512" stroke="rgb(79,78,78)" stroke-linejoin="miter" stroke-linecap="square" stroke-miterlimit="3"/><path d=" M 549.366 241.335 C 548.505 241.335 547.8 241.889 547.8 242.565 C 547.8 243.242 548.505 243.795 549.366 243.795 C 550.227 243.795 550.931 243.242 550.931 242.565 C 550.931 241.889 550.227 241.335 549.366 241.335 Z  M 544.669 231.493 L 544.669 232.723 L 546.235 232.723 L 549.053 237.398 L 547.957 238.874 C 547.879 239.059 547.8 239.305 547.8 239.49 C 547.8 240.166 548.505 240.72 549.366 240.72 L 558.759 240.72 L 558.759 239.49 L 549.679 239.49 C 549.601 239.49 549.522 239.428 549.522 239.366 L 549.522 239.305 L 550.227 238.259 L 556.019 238.259 C 556.645 238.259 557.115 238.013 557.35 237.644 L 560.167 233.646 C 560.324 233.523 560.324 233.461 560.324 233.338 C 560.324 232.969 560.011 232.723 559.541 232.723 L 547.957 232.723 L 547.252 231.493 L 544.669 231.493 Z  M 557.193 241.335 C 556.332 241.335 555.628 241.889 555.628 242.565 C 555.628 243.242 556.332 243.795 557.193 243.795 C 558.054 243.795 558.759 243.242 558.759 242.565 C 558.759 241.889 558.054 241.335 557.193 241.335 Z " fill="rgb(79,78,78)"/><ellipse vector-effect="non-scaling-stroke" cx="552.5" cy="237" rx="24.878110920931704" ry="16.585407280621126" fill="none" stroke-width="0.528" stroke="rgb(79,78,78)" stroke-linejoin="miter" stroke-linecap="square" stroke-miterlimit="3"/></g></svg>