<?xml version="1.0" encoding="UTF-8" standalone="no"?><!-- Generator: Gravit.io --><svg xmlns="http://www.w3.org/2000/svg" xmlns:xlink="http://www.w3.org/1999/xlink" style="isolation:isolate" viewBox="527.358 220.151 50.284 33.698" width="50.284pt" height="33.698pt"><defs><clipPath id="_clipPath_3kyZ4pTYMDSMv97uiXczSF4dOIwEBFfQ"><rect x="527.358" y="220.151" width="50.284" height="33.698"/></clipPath></defs><g clip-path="url(#_clipPath_3kyZ4pTYMDSMv97uiXczSF4dOIwEBFfQ)"><ellipse vector-effect="non-scaling-stroke" cx="552.4977997922259" cy="236.93874840443982" rx="24.453790775016955" ry="16.221051078409687" fill="rgb(120,242,135)" stroke-width="0.512" stroke="rgb(79,78,78)" stroke-linejoin="miter" stroke-linecap="square" stroke-miterlimit="3"/><ellipse vector-effect="non-scaling-stroke" cx="552.5" cy="237" rx="24.878110920931704" ry="16.585407280621126" fill="none" stroke-width="0.528" stroke="rgb(79,78,78)" stroke-linejoin="miter" stroke-linecap="square" stroke-miterlimit="3"/><path d=" M 528.371 236.573 C 527.894 244.942 538.966 252.837 552.462 252.837 C 565.958 252.837 576.478 245.351 576.546 236.641 C 575.631 235.646 565.958 236.616 552.462 236.616 C 538.966 236.616 528.529 234.897 528.371 236.573 Z " fill="rgb(53,189,53)"/><g><g><g><path d=" M 549.366 241.516 C 548.505 241.516 547.8 242.07 547.8 242.747 C 547.8 243.423 548.505 243.977 549.366 243.977 C 550.227 243.977 550.931 243.423 550.931 242.747 C 550.931 242.07 550.227 241.516 549.366 241.516 Z  M 544.669 231.674 L 544.669 232.904 L 546.235 232.904 L 549.053 237.579 L 547.957 239.056 C 547.879 239.24 547.8 239.486 547.8 239.671 C 547.8 240.348 548.505 240.901 549.366 240.901 L 558.759 240.901 L 558.759 239.671 L 549.679 239.671 C 549.601 239.671 549.522 239.609 549.522 239.548 L 549.522 239.486 L 550.227 238.441 L 556.019 238.441 C 556.645 238.441 557.115 238.195 557.35 237.825 L 560.167 233.827 C 560.324 233.704 560.324 233.643 560.324 233.52 C 560.324 233.15 560.011 232.904 559.541 232.904 L 547.957 232.904 L 547.252 231.674 L 544.669 231.674 Z  M 557.193 241.516 C 556.332 241.516 555.628 242.07 555.628 242.747 C 555.628 243.423 556.332 243.977 557.193 243.977 C 558.054 243.977 558.759 243.423 558.759 242.747 C 558.759 242.07 558.054 241.516 557.193 241.516 Z " fill="rgb(0,0,0)"/></g></g></g></g></svg>