<?xml version="1.0" encoding="UTF-8" standalone="no"?><!-- Generator: Gravit.io --><svg xmlns="http://www.w3.org/2000/svg" xmlns:xlink="http://www.w3.org/1999/xlink" style="isolation:isolate" viewBox="543.858 202.651 50.284 33.698" width="50.284pt" height="33.698pt"><defs><clipPath id="_clipPath_1kOFPHJKtFUnclU3H2bg2jnXe7M47UD9"><rect x="543.858" y="202.651" width="50.284" height="33.698"/></clipPath></defs><g clip-path="url(#_clipPath_1kOFPHJKtFUnclU3H2bg2jnXe7M47UD9)"><ellipse vector-effect="non-scaling-stroke" cx="569.014619885015" cy="219.43874840443976" rx="24.453790775016955" ry="16.221051078409687" fill="rgb(120,242,135)" stroke-width="0.512" stroke="rgb(226,228,232)" stroke-opacity="100" stroke-linejoin="miter" stroke-linecap="square" stroke-miterlimit="3"/><path d=" M 565.866 224.016 C 565.005 224.016 564.3 224.57 564.3 225.247 C 564.3 225.923 565.005 226.477 565.866 226.477 C 566.727 226.477 567.431 225.923 567.431 225.247 C 567.431 224.57 566.727 224.016 565.866 224.016 Z  M 561.169 214.174 L 561.169 215.404 L 562.735 215.404 L 565.553 220.079 L 564.457 221.556 C 564.379 221.74 564.3 221.986 564.3 222.171 C 564.3 222.848 565.005 223.401 565.866 223.401 L 575.259 223.401 L 575.259 222.171 L 566.179 222.171 C 566.101 222.171 566.022 222.109 566.022 222.048 L 566.022 221.986 L 566.727 220.941 L 572.519 220.941 C 573.145 220.941 573.615 220.695 573.85 220.325 L 576.667 216.327 C 576.824 216.204 576.824 216.143 576.824 216.02 C 576.824 215.65 576.511 215.404 576.041 215.404 L 564.457 215.404 L 563.752 214.174 L 561.169 214.174 Z  M 573.693 224.016 C 572.832 224.016 572.128 224.57 572.128 225.247 C 572.128 225.923 572.832 226.477 573.693 226.477 C 574.554 226.477 575.259 225.923 575.259 225.247 C 575.259 224.57 574.554 224.016 573.693 224.016 Z " fill="rgb(131,131,131)"/><ellipse vector-effect="non-scaling-stroke" cx="569" cy="219.5" rx="24.878110920931704" ry="16.585407280621126" fill="none" stroke-width="0.528" stroke="rgb(235,235,235)" stroke-opacity="100" stroke-linejoin="miter" stroke-linecap="square" stroke-miterlimit="3"/></g></svg>