<?xml version="1.0" encoding="UTF-8" standalone="no"?><!-- Generator: Gravit.io --><svg xmlns="http://www.w3.org/2000/svg" xmlns:xlink="http://www.w3.org/1999/xlink" style="isolation:isolate" viewBox="542.317 320.871 50.284 33.698" width="50.284pt" height="33.698pt"><defs><clipPath id="_clipPath_todYSK6R188bGUJINlv4w5CJCGF2VVqk"><rect x="542.317" y="320.871" width="50.284" height="33.698"/></clipPath></defs><g clip-path="url(#_clipPath_todYSK6R188bGUJINlv4w5CJCGF2VVqk)"><ellipse vector-effect="non-scaling-stroke" cx="567.4569776843912" cy="337.65900886364705" rx="24.453790775016955" ry="16.221051078409687" fill="rgb(120,242,135)" stroke-width="0.512" stroke="rgb(79,78,78)" stroke-linejoin="miter" stroke-linecap="square" stroke-miterlimit="3"/><ellipse vector-effect="non-scaling-stroke" cx="567.4591778921653" cy="337.7202604592072" rx="24.878110920931704" ry="16.585407280621098" fill="none" stroke-width="0.528" stroke="rgb(79,78,78)" stroke-linejoin="miter" stroke-linecap="square" stroke-miterlimit="3"/><path d=" M 543.376 337.616 C 542.899 345.986 553.971 353.88 567.467 353.88 C 580.963 353.88 591.483 346.394 591.551 337.684 C 590.636 336.689 580.963 337.659 567.467 337.659 C 553.971 337.659 543.534 335.941 543.376 337.616 Z " fill="rgb(107,255,135)"/><g><g><g><path d=" M 564.325 342.237 C 563.464 342.237 562.759 342.79 562.759 343.467 C 562.759 344.143 563.464 344.697 564.325 344.697 C 565.186 344.697 565.89 344.143 565.89 343.467 C 565.89 342.79 565.186 342.237 564.325 342.237 Z  M 559.628 332.394 L 559.628 333.625 L 561.194 333.625 L 564.012 338.3 L 562.916 339.776 C 562.838 339.961 562.759 340.207 562.759 340.391 C 562.759 341.068 563.464 341.621 564.325 341.621 L 573.718 341.621 L 573.718 340.391 L 564.638 340.391 C 564.56 340.391 564.481 340.33 564.481 340.268 L 564.481 340.207 L 565.186 339.161 L 570.978 339.161 C 571.604 339.161 572.074 338.915 572.309 338.546 L 575.127 334.547 C 575.283 334.424 575.283 334.363 575.283 334.24 C 575.283 333.871 574.97 333.625 574.5 333.625 L 562.916 333.625 L 562.212 332.394 L 559.628 332.394 Z  M 572.152 342.237 C 571.291 342.237 570.587 342.79 570.587 343.467 C 570.587 344.143 571.291 344.697 572.152 344.697 C 573.013 344.697 573.718 344.143 573.718 343.467 C 573.718 342.79 573.013 342.237 572.152 342.237 Z " fill="rgb(0,0,0)"/></g></g></g></g></svg>