<?xml version="1.0" encoding="UTF-8" standalone="no"?><!-- Generator: Gravit.io --><svg xmlns="http://www.w3.org/2000/svg" xmlns:xlink="http://www.w3.org/1999/xlink" style="isolation:isolate" viewBox="387.428 91.853 97.227 88.333" width="97.227pt" height="88.333pt"><defs><clipPath id="_clipPath_H8b7uvEijo6jacVWd08c0JNhia2m2jZ2"><rect x="387.428" y="91.853" width="97.227" height="88.333"/></clipPath></defs><g clip-path="url(#_clipPath_H8b7uvEijo6jacVWd08c0JNhia2m2jZ2)"><g/><path d=" M 469.853 96.383 L 473.478 96.383 C 477.146 96.383 480.123 99.361 480.123 103.029 L 480.123 123.971 C 480.123 127.639 477.146 130.617 473.478 130.617 L 450.522 130.617 C 446.854 130.617 443.877 127.639 443.877 123.971 L 443.877 103.029 C 443.877 99.361 446.854 96.383 450.522 96.383 L 456.563 96.383 Q 463.208 96.383 469.853 96.383 Z " fill="rgb(242,195,120)" vector-effect="non-scaling-stroke" stroke-width="3.021" stroke="rgb(79,78,78)" stroke-linejoin="miter" stroke-linecap="square" stroke-miterlimit="3"/><path d=" M 464.279 108.474 L 465.961 108.474 C 467.663 108.474 469.045 109.856 469.045 111.558 L 469.045 121.276 C 469.045 122.978 467.663 124.36 465.961 124.36 L 455.308 124.36 C 453.606 124.36 452.224 122.978 452.224 121.276 L 452.224 111.558 C 452.224 109.856 453.606 108.474 455.308 108.474 L 458.111 108.474 Q 461.195 108.474 464.279 108.474 Z " fill="none" vector-effect="non-scaling-stroke" stroke-width="1.402" stroke="rgb(255,255,255)" stroke-linejoin="miter" stroke-linecap="square" stroke-miterlimit="3"/><path d=" M 474.218 102.64 L 463.446 102.559 C 462.86 102.559 462.384 103.034 462.384 103.621 C 462.384 104.207 462.859 104.683 463.446 104.683 L 471.655 104.764 L 461.273 115.166 C 460.859 115.581 460.859 116.253 461.273 116.668 C 461.688 117.082 462.36 117.082 462.775 116.668 L 473.156 106.266 L 473.141 113.315 C 473.141 113.901 473.617 114.377 474.203 114.377 C 474.496 114.377 474.762 114.258 474.954 114.066 C 475.146 113.874 475.265 113.608 475.265 113.315 L 475.28 103.702 C 475.28 103.116 474.805 102.64 474.218 102.64 Z " fill="rgb(255,255,255)"/></g></svg>