<?xml version="1.0" encoding="UTF-8" standalone="no"?><!-- Generator: Gravit.io --><svg xmlns="http://www.w3.org/2000/svg" xmlns:xlink="http://www.w3.org/1999/xlink" style="isolation:isolate" viewBox="547.99 299.194 50.284 33.698" width="50.284pt" height="33.698pt"><defs><clipPath id="_clipPath_aMRD2rD0X0mxGXeA6miAu6FZLKORiX0S"><rect x="547.99" y="299.194" width="50.284" height="33.698"/></clipPath></defs><g clip-path="url(#_clipPath_aMRD2rD0X0mxGXeA6miAu6FZLKORiX0S)"><ellipse vector-effect="non-scaling-stroke" cx="573.1463636397226" cy="315.98170360321797" rx="24.453790775016955" ry="16.221051078409687" fill="rgb(120,167,242)" stroke-width="0.512" stroke="rgb(226,228,232)" stroke-opacity="100" stroke-linejoin="miter" stroke-linecap="square" stroke-miterlimit="3"/><g><g><g><path d=" M 569.997 320.559 C 569.136 320.559 568.432 321.113 568.432 321.79 C 568.432 322.466 569.136 323.02 569.997 323.02 C 570.858 323.02 571.563 322.466 571.563 321.79 C 571.563 321.113 570.858 320.559 569.997 320.559 Z  M 565.301 310.717 L 565.301 311.947 L 566.867 311.947 L 569.684 316.622 L 568.589 318.099 C 568.51 318.283 568.432 318.529 568.432 318.714 C 568.432 319.39 569.136 319.944 569.997 319.944 L 579.39 319.944 L 579.39 318.714 L 570.311 318.714 C 570.232 318.714 570.154 318.652 570.154 318.591 L 570.154 318.529 L 570.858 317.484 L 576.651 317.484 C 577.277 317.484 577.747 317.238 577.981 316.868 L 580.799 312.87 C 580.956 312.747 580.956 312.686 580.956 312.563 C 580.956 312.193 580.643 311.947 580.173 311.947 L 568.589 311.947 L 567.884 310.717 L 565.301 310.717 Z  M 577.825 320.559 C 576.964 320.559 576.259 321.113 576.259 321.79 C 576.259 322.466 576.964 323.02 577.825 323.02 C 578.686 323.02 579.39 322.466 579.39 321.79 C 579.39 321.113 578.686 320.559 577.825 320.559 Z " fill="rgb(131,131,131)"/></g></g></g><ellipse vector-effect="non-scaling-stroke" cx="573.1317437547074" cy="316.0429551987782" rx="24.878110920931704" ry="16.585407280621098" fill="none" stroke-width="0.528" stroke="rgb(235,235,235)" stroke-opacity="100" stroke-linejoin="miter" stroke-linecap="square" stroke-miterlimit="3"/></g></svg>