<?xml version="1.0" encoding="UTF-8" standalone="no"?><!-- Generator: Gravit.io --><svg xmlns="http://www.w3.org/2000/svg" xmlns:xlink="http://www.w3.org/1999/xlink" style="isolation:isolate" viewBox="558.98 264.565 50.284 33.698" width="50.284pt" height="33.698pt"><defs><clipPath id="_clipPath_cEOmHtSFPF8KWbYMHd3q0Wv0ZOoXOVta"><rect x="558.98" y="264.565" width="50.284" height="33.698"/></clipPath></defs><g clip-path="url(#_clipPath_cEOmHtSFPF8KWbYMHd3q0Wv0ZOoXOVta)"><ellipse vector-effect="non-scaling-stroke" cx="584.1365089640833" cy="281.35334112381867" rx="24.453790775016955" ry="16.221051078409687" fill="rgb(120,167,242)" stroke-width="0.512" stroke="rgb(79,78,78)" stroke-linejoin="miter" stroke-linecap="square" stroke-miterlimit="3"/><g><g><g><path d=" M 580.988 285.931 C 580.127 285.931 579.422 286.485 579.422 287.161 C 579.422 287.838 580.127 288.391 580.988 288.391 C 581.849 288.391 582.553 287.838 582.553 287.161 C 582.553 286.485 581.849 285.931 580.988 285.931 Z  M 576.291 276.089 L 576.291 277.319 L 577.857 277.319 L 580.675 281.994 L 579.579 283.47 C 579.5 283.655 579.422 283.901 579.422 284.085 C 579.422 284.762 580.127 285.316 580.988 285.316 L 590.38 285.316 L 590.38 284.085 L 581.301 284.085 C 581.222 284.085 581.144 284.024 581.144 283.962 L 581.144 283.901 L 581.849 282.855 L 587.641 282.855 C 588.267 282.855 588.737 282.609 588.972 282.24 L 591.789 278.242 C 591.946 278.119 591.946 278.057 591.946 277.934 C 591.946 277.565 591.633 277.319 591.163 277.319 L 579.579 277.319 L 578.874 276.089 L 576.291 276.089 Z  M 588.815 285.931 C 587.954 285.931 587.25 286.485 587.25 287.161 C 587.25 287.838 587.954 288.391 588.815 288.391 C 589.676 288.391 590.38 287.838 590.38 287.161 C 590.38 286.485 589.676 285.931 588.815 285.931 Z " fill="rgb(79,78,78)"/></g></g></g><ellipse vector-effect="non-scaling-stroke" cx="584.1218890790683" cy="281.41459271937885" rx="24.878110920931704" ry="16.585407280621098" fill="none" stroke-width="0.528" stroke="rgb(79,78,78)" stroke-linejoin="miter" stroke-linecap="square" stroke-miterlimit="3"/></g></svg>